<svg xmlns="http://www.w3.org/2000/svg" viewBox="0 0 128 128" role="img" aria-label="horus-os">
  <!-- Square favicon: cyan Wedjat on the deep near-black brand background. -->
  <rect x="0" y="0" width="128" height="128" rx="26" fill="#0a0b0f" />
  <rect x="2.5" y="2.5" width="123" height="123" rx="24" fill="none" stroke="#1a1b24" stroke-width="2" />
  <g transform="translate(8,24) scale(0.875)">
    <g stroke="#00d4ff" stroke-width="6" stroke-linecap="round" stroke-linejoin="round" fill="none">
      <path d="M12 30 C 36 12, 78 10, 100 22" />
      <path d="M16 44 C 30 28, 72 26, 92 40" />
      <path d="M16 44 C 34 58, 72 56, 92 40" />
      <path d="M92 40 C 104 38, 116 34, 126 26" />
      <path d="M40 54 C 40 68, 40 78, 37 86" />
      <path d="M60 55 C 62 74, 76 86, 88 80 C 96 76, 94 64, 84 66" />
    </g>
    <circle cx="52" cy="41" r="8.5" fill="#00d4ff" />
  </g>
</svg>
